<svg xmlns="http://www.w3.org/2000/svg" version="1.1" xmlns:xlink="http://www.w3.org/1999/xlink" xmlns:svgjs="http://svgjs.dev/svgjs" viewBox="0 0 800 800" opacity="1" width="800" height="800"><g stroke-width="3" stroke="hsla(0, 0%, 0%, 1.00)" fill="none"><rect width="72.72727272727273" height="80" x="0" y="0"></rect><rect width="72.72727272727273" height="80" x="72.72727272727273" y="0"></rect><rect width="72.72727272727273" height="80" x="145.45454545454547" y="0"></rect><rect width="72.72727272727273" height="80" x="218.1818181818182" y="0"></rect><rect width="72.72727272727273" height="80" x="290.90909090909093" y="0"></rect><rect width="72.72727272727273" height="80" x="363.6363636363637" y="0"></rect><rect width="72.72727272727273" height="80" x="436.36363636363643" y="0"></rect><rect width="72.72727272727273" height="80" x="509.0909090909092" y="0"></rect><rect width="72.72727272727273" height="80" x="581.8181818181819" y="0"></rect><rect width="72.72727272727273" height="80" x="654.5454545454546" y="0"></rect><rect width="72.72727272727273" height="80" x="727.2727272727274" y="0"></rect><rect width="72.72727272727273" height="80" x="800.0000000000001" y="0"></rect><rect width="72.72727272727273" height="80" x="0" y="80"></rect><rect width="72.72727272727273" height="80" x="72.72727272727273" y="80"></rect><rect width="72.72727272727273" height="80" x="145.45454545454547" y="80"></rect><rect width="72.72727272727273" height="80" x="218.1818181818182" y="80"></rect><rect width="72.72727272727273" height="80" x="290.90909090909093" y="80"></rect><rect width="72.72727272727273" height="80" x="363.6363636363637" y="80"></rect><rect width="72.72727272727273" height="80" x="436.36363636363643" y="80"></rect><rect width="72.72727272727273" height="80" x="509.0909090909092" y="80"></rect><rect width="72.72727272727273" height="80" x="581.8181818181819" y="80"></rect><rect width="72.72727272727273" height="80" x="654.5454545454546" y="80"></rect><rect width="72.72727272727273" height="80" x="727.2727272727274" y="80"></rect><rect width="72.72727272727273" height="80" x="800.0000000000001" y="80"></rect><rect width="72.72727272727273" height="80" x="0" y="160"></rect><rect width="72.72727272727273" height="80" x="72.72727272727273" y="160"></rect><rect width="72.72727272727273" height="80" x="145.45454545454547" y="160"></rect><rect width="72.72727272727273" height="80" x="218.1818181818182" y="160"></rect><rect width="72.72727272727273" height="80" x="290.90909090909093" y="160"></rect><rect width="72.72727272727273" height="80" x="363.6363636363637" y="160"></rect><rect width="72.72727272727273" height="80" x="436.36363636363643" y="160"></rect><rect width="72.72727272727273" height="80" x="509.0909090909092" y="160"></rect><rect width="72.72727272727273" height="80" x="581.8181818181819" y="160"></rect><rect width="72.72727272727273" height="80" x="654.5454545454546" y="160"></rect><rect width="72.72727272727273" height="80" x="727.2727272727274" y="160"></rect><rect width="72.72727272727273" height="80" x="800.0000000000001" y="160"></rect><rect width="72.72727272727273" height="80" x="0" y="240"></rect><rect width="72.72727272727273" height="80" x="72.72727272727273" y="240"></rect><rect width="72.72727272727273" height="80" x="145.45454545454547" y="240"></rect><rect width="72.72727272727273" height="80" x="218.1818181818182" y="240"></rect><rect width="72.72727272727273" height="80" x="290.90909090909093" y="240"></rect><rect width="72.72727272727273" height="80" x="363.6363636363637" y="240"></rect><rect width="72.72727272727273" height="80" x="436.36363636363643" y="240"></rect><rect width="72.72727272727273" height="80" x="509.0909090909092" y="240"></rect><rect width="72.72727272727273" height="80" x="581.8181818181819" y="240"></rect><rect width="72.72727272727273" height="80" x="654.5454545454546" y="240"></rect><rect width="72.72727272727273" height="80" x="727.2727272727274" y="240"></rect><rect width="72.72727272727273" height="80" x="800.0000000000001" y="240"></rect><rect width="72.72727272727273" height="80" x="0" y="320"></rect><rect width="72.72727272727273" height="80" x="72.72727272727273" y="320"></rect><rect width="72.72727272727273" height="80" x="145.45454545454547" y="320"></rect><rect width="72.72727272727273" height="80" x="218.1818181818182" y="320"></rect><rect width="72.72727272727273" height="80" x="290.90909090909093" y="320"></rect><rect width="72.72727272727273" height="80" x="363.6363636363637" y="320"></rect><rect width="72.72727272727273" height="80" x="436.36363636363643" y="320"></rect><rect width="72.72727272727273" height="80" x="509.0909090909092" y="320"></rect><rect width="72.72727272727273" height="80" x="581.8181818181819" y="320"></rect><rect width="72.72727272727273" height="80" x="654.5454545454546" y="320"></rect><rect width="72.72727272727273" height="80" x="727.2727272727274" y="320"></rect><rect width="72.72727272727273" height="80" x="800.0000000000001" y="320"></rect><rect width="72.72727272727273" height="80" x="0" y="400"></rect><rect width="72.72727272727273" height="80" x="72.72727272727273" y="400"></rect><rect width="72.72727272727273" height="80" x="145.45454545454547" y="400"></rect><rect width="72.72727272727273" height="80" x="218.1818181818182" y="400"></rect><rect width="72.72727272727273" height="80" x="290.90909090909093" y="400"></rect><rect width="72.72727272727273" height="80" x="363.6363636363637" y="400"></rect><rect width="72.72727272727273" height="80" x="436.36363636363643" y="400"></rect><rect width="72.72727272727273" height="80" x="509.0909090909092" y="400"></rect><rect width="72.72727272727273" height="80" x="581.8181818181819" y="400"></rect><rect width="72.72727272727273" height="80" x="654.5454545454546" y="400"></rect><rect width="72.72727272727273" height="80" x="727.2727272727274" y="400"></rect><rect width="72.72727272727273" height="80" x="800.0000000000001" y="400"></rect><rect width="72.72727272727273" height="80" x="0" y="480"></rect><rect width="72.72727272727273" height="80" x="72.72727272727273" y="480"></rect><rect width="72.72727272727273" height="80" x="145.45454545454547" y="480"></rect><rect width="72.72727272727273" height="80" x="218.1818181818182" y="480"></rect><rect width="72.72727272727273" height="80" x="290.90909090909093" y="480"></rect><rect width="72.72727272727273" height="80" x="363.6363636363637" y="480"></rect><rect width="72.72727272727273" height="80" x="436.36363636363643" y="480"></rect><rect width="72.72727272727273" height="80" x="509.0909090909092" y="480"></rect><rect width="72.72727272727273" height="80" x="581.8181818181819" y="480"></rect><rect width="72.72727272727273" height="80" x="654.5454545454546" y="480"></rect><rect width="72.72727272727273" height="80" x="727.2727272727274" y="480"></rect><rect width="72.72727272727273" height="80" x="800.0000000000001" y="480"></rect><rect width="72.72727272727273" height="80" x="0" y="560"></rect><rect width="72.72727272727273" height="80" x="72.72727272727273" y="560"></rect><rect width="72.72727272727273" height="80" x="145.45454545454547" y="560"></rect><rect width="72.72727272727273" height="80" x="218.1818181818182" y="560"></rect><rect width="72.72727272727273" height="80" x="290.90909090909093" y="560"></rect><rect width="72.72727272727273" height="80" x="363.6363636363637" y="560"></rect><rect width="72.72727272727273" height="80" x="436.36363636363643" y="560"></rect><rect width="72.72727272727273" height="80" x="509.0909090909092" y="560"></rect><rect width="72.72727272727273" height="80" x="581.8181818181819" y="560"></rect><rect width="72.72727272727273" height="80" x="654.5454545454546" y="560"></rect><rect width="72.72727272727273" height="80" x="727.2727272727274" y="560"></rect><rect width="72.72727272727273" height="80" x="800.0000000000001" y="560"></rect><rect width="72.72727272727273" height="80" x="0" y="640"></rect><rect width="72.72727272727273" height="80" x="72.72727272727273" y="640"></rect><rect width="72.72727272727273" height="80" x="145.45454545454547" y="640"></rect><rect width="72.72727272727273" height="80" x="218.1818181818182" y="640"></rect><rect width="72.72727272727273" height="80" x="290.90909090909093" y="640"></rect><rect width="72.72727272727273" height="80" x="363.6363636363637" y="640"></rect><rect width="72.72727272727273" height="80" x="436.36363636363643" y="640"></rect><rect width="72.72727272727273" height="80" x="509.0909090909092" y="640"></rect><rect width="72.72727272727273" height="80" x="581.8181818181819" y="640"></rect><rect width="72.72727272727273" height="80" x="654.5454545454546" y="640"></rect><rect width="72.72727272727273" height="80" x="727.2727272727274" y="640"></rect><rect width="72.72727272727273" height="80" x="800.0000000000001" y="640"></rect><rect width="72.72727272727273" height="80" x="0" y="720"></rect><rect width="72.72727272727273" height="80" x="72.72727272727273" y="720"></rect><rect width="72.72727272727273" height="80" x="145.45454545454547" y="720"></rect><rect width="72.72727272727273" height="80" x="218.1818181818182" y="720"></rect><rect width="72.72727272727273" height="80" x="290.90909090909093" y="720"></rect><rect width="72.72727272727273" height="80" x="363.6363636363637" y="720"></rect><rect width="72.72727272727273" height="80" x="436.36363636363643" y="720"></rect><rect width="72.72727272727273" height="80" x="509.0909090909092" y="720"></rect><rect width="72.72727272727273" height="80" x="581.8181818181819" y="720"></rect><rect width="72.72727272727273" height="80" x="654.5454545454546" y="720"></rect><rect width="72.72727272727273" height="80" x="727.2727272727274" y="720"></rect><rect width="72.72727272727273" height="80" x="800.0000000000001" y="720"></rect><rect width="72.72727272727273" height="80" x="0" y="800"></rect><rect width="72.72727272727273" height="80" x="72.72727272727273" y="800"></rect><rect width="72.72727272727273" height="80" x="145.45454545454547" y="800"></rect><rect width="72.72727272727273" height="80" x="218.1818181818182" y="800"></rect><rect width="72.72727272727273" height="80" x="290.90909090909093" y="800"></rect><rect width="72.72727272727273" height="80" x="363.6363636363637" y="800"></rect><rect width="72.72727272727273" height="80" x="436.36363636363643" y="800"></rect><rect width="72.72727272727273" height="80" x="509.0909090909092" y="800"></rect><rect width="72.72727272727273" height="80" x="581.8181818181819" y="800"></rect><rect width="72.72727272727273" height="80" x="654.5454545454546" y="800"></rect><rect width="72.72727272727273" height="80" x="727.2727272727274" y="800"></rect><rect width="72.72727272727273" height="80" x="800.0000000000001" y="800"></rect></g></svg>